# xmcd CD database file
#
# Track frame offsets:
#	150
#	16116
#	31670
#	42441
#	59703
#	77190
#	95795
#	106928
#	122260
#	139592
#	154960
#	172619
#	176798
#
# Disc length: 2459 seconds
#
# Revision: 0
# Processed by: cddbd v1.5.2PL0 Copyright (c) Steve Scherf et al.
# Submitted via: CDex 1.70beta2
#
DISCID=9f09990d
DTITLE=Nicotine - SOUNDQUAKE
DYEAR=2008
DGENRE=
TTITLE0=SOUNDQUAKE
TTITLE1=SOMEDAY
TTITLE2=C’est la vie-SONG FOR LOSERS
TTITLE3=CAMPUS
TTITLE4=THE SONG FOR YOUTH/若者達への賛歌 
TTITLE5=SUMMER RAIN
TTITLE6=WHERE IS MY SHOES
TTITLE7=TIME MACHINE
TTITLE8=MY ARMS
TTITLE9=EVENTIDE
TTITLE10=LA
TTITLE11=THE PRICE OF GASOLINE
TTITLE12=PUNK ROCK JOHNNY
EXTD=YEAR: 2008
EXTT0=
EXTT1=
EXTT2=
EXTT3=
EXTT4=
EXTT5=
EXTT6=
EXTT7=
EXTT8=
EXTT9=
EXTT10=
EXTT11=
EXTT12=
PLAYORDER=
